<svg height="660.0" width="1000.0" version="4.0" xmlns="http://www.w3.org/2000/svg" xmlns:xlink= "http://www.w3.org/1999/xlink">
<rect width="100%" height="100%" fill="white"/>
<defs><style>@import url("https://fonts.googleapis.com/css?family=Roboto");</style></defs>
<rect x="0.0" y="0.0" width="1000.0" height="660.0" style="fill:rgb(255.0,255.0,255.0);stroke-width:0;stroke:rgb(0,0,0);opacity:1.0" />
<line x1="137.45" y1="583.0" x2="137.45" y2="54.0" style="stroke:rgb(127.5,127.5,127.5);stroke-width:0.5;opacity:1.0;stroke-linecap:butt" />
<line x1="222.35" y1="583.0" x2="222.35" y2="54.0" style="stroke:rgb(127.5,127.5,127.5);stroke-width:0.5;opacity:1.0;stroke-linecap:butt" />
<line x1="307.25" y1="583.0" x2="307.25" y2="54.0" style="stroke:rgb(127.5,127.5,127.5);stroke-width:0.5;opacity:1.0;stroke-linecap:butt" />
<line x1="392.15" y1="583.0" x2="392.15" y2="54.0" style="stroke:rgb(127.5,127.5,127.5);stroke-width:0.5;opacity:1.0;stroke-linecap:butt" />
<line x1="477.05" y1="583.0" x2="477.05" y2="54.0" style="stroke:rgb(127.5,127.5,127.5);stroke-width:0.5;opacity:1.0;stroke-linecap:butt" />
<line x1="561.94995" y1="583.0" x2="561.94995" y2="54.0" style="stroke:rgb(127.5,127.5,127.5);stroke-width:0.5;opacity:1.0;stroke-linecap:butt" />
<line x1="646.85" y1="583.0" x2="646.85" y2="54.0" style="stroke:rgb(127.5,127.5,127.5);stroke-width:0.5;opacity:1.0;stroke-linecap:butt" />
<line x1="731.75" y1="583.0" x2="731.75" y2="54.0" style="stroke:rgb(127.5,127.5,127.5);stroke-width:0.5;opacity:1.0;stroke-linecap:butt" />
<line x1="816.65" y1="583.0" x2="816.65" y2="54.0" style="stroke:rgb(127.5,127.5,127.5);stroke-width:0.5;opacity:1.0;stroke-linecap:butt" />
<line x1="901.55005" y1="583.0" x2="901.55005" y2="54.0" style="stroke:rgb(127.5,127.5,127.5);stroke-width:0.5;opacity:1.0;stroke-linecap:butt" />
<line x1="95.0" y1="559.8971" x2="944.0" y2="559.8971" style="stroke:rgb(127.5,127.5,127.5);stroke-width:0.5;opacity:1.0;stroke-linecap:butt" />
<line x1="95.0" y1="417.46732" x2="944.0" y2="417.46732" style="stroke:rgb(127.5,127.5,127.5);stroke-width:0.5;opacity:1.0;stroke-linecap:butt" />
<line x1="95.0" y1="275.03754" x2="944.0" y2="275.03754" style="stroke:rgb(127.5,127.5,127.5);stroke-width:0.5;opacity:1.0;stroke-linecap:butt" />
<line x1="95.0" y1="132.60779" x2="944.0" y2="132.60779" style="stroke:rgb(127.5,127.5,127.5);stroke-width:0.5;opacity:1.0;stroke-linecap:butt" />
<rect x="94.0" y="53.0" width="851.0" height="531.0" style="fill:rgb(255,255,255);stroke-width:2.0;stroke:rgb(0.0,0.0,0.0);opacity:1;fill-opacity:0;" />
<line x1="137.45" y1="585.0" x2="137.45" y2="591.0" style="stroke:rgb(0.0,0.0,0.0);stroke-width:2.0;opacity:1.0;stroke-linecap:butt" />
<text font-size="12.0" font-family="Roboto" x="119.55" y="609.0" style="stroke:rgb(0.0,0.0,0.0);stroke-width:0.175;fill:rgb(0.0,0.0,0.0);opacity:1.0;" transform="rotate(-0.0,119.55,609.0)">1.0</text>
<line x1="222.35" y1="585.0" x2="222.35" y2="591.0" style="stroke:rgb(0.0,0.0,0.0);stroke-width:2.0;opacity:1.0;stroke-linecap:butt" />
<text font-size="12.0" font-family="Roboto" x="203.97" y="609.0" style="stroke:rgb(0.0,0.0,0.0);stroke-width:0.175;fill:rgb(0.0,0.0,0.0);opacity:1.0;" transform="rotate(-0.0,203.97,609.0)">2.0</text>
<line x1="307.25" y1="585.0" x2="307.25" y2="591.0" style="stroke:rgb(0.0,0.0,0.0);stroke-width:2.0;opacity:1.0;stroke-linecap:butt" />
<text font-size="12.0" font-family="Roboto" x="288.87" y="609.0" style="stroke:rgb(0.0,0.0,0.0);stroke-width:0.175;fill:rgb(0.0,0.0,0.0);opacity:1.0;" transform="rotate(-0.0,288.87,609.0)">3.0</text>
<line x1="392.15" y1="585.0" x2="392.15" y2="591.0" style="stroke:rgb(0.0,0.0,0.0);stroke-width:2.0;opacity:1.0;stroke-linecap:butt" />
<text font-size="12.0" font-family="Roboto" x="373.77" y="609.0" style="stroke:rgb(0.0,0.0,0.0);stroke-width:0.175;fill:rgb(0.0,0.0,0.0);opacity:1.0;" transform="rotate(-0.0,373.77,609.0)">4.0</text>
<line x1="477.05" y1="585.0" x2="477.05" y2="591.0" style="stroke:rgb(0.0,0.0,0.0);stroke-width:2.0;opacity:1.0;stroke-linecap:butt" />
<text font-size="12.0" font-family="Roboto" x="458.66998" y="609.0" style="stroke:rgb(0.0,0.0,0.0);stroke-width:0.175;fill:rgb(0.0,0.0,0.0);opacity:1.0;" transform="rotate(-0.0,458.66998,609.0)">5.0</text>
<line x1="561.94995" y1="585.0" x2="561.94995" y2="591.0" style="stroke:rgb(0.0,0.0,0.0);stroke-width:2.0;opacity:1.0;stroke-linecap:butt" />
<text font-size="12.0" font-family="Roboto" x="543.56995" y="609.0" style="stroke:rgb(0.0,0.0,0.0);stroke-width:0.175;fill:rgb(0.0,0.0,0.0);opacity:1.0;" transform="rotate(-0.0,543.56995,609.0)">6.0</text>
<line x1="646.85" y1="585.0" x2="646.85" y2="591.0" style="stroke:rgb(0.0,0.0,0.0);stroke-width:2.0;opacity:1.0;stroke-linecap:butt" />
<text font-size="12.0" font-family="Roboto" x="628.47" y="609.0" style="stroke:rgb(0.0,0.0,0.0);stroke-width:0.175;fill:rgb(0.0,0.0,0.0);opacity:1.0;" transform="rotate(-0.0,628.47,609.0)">7.0</text>
<line x1="731.75" y1="585.0" x2="731.75" y2="591.0" style="stroke:rgb(0.0,0.0,0.0);stroke-width:2.0;opacity:1.0;stroke-linecap:butt" />
<text font-size="12.0" font-family="Roboto" x="713.37" y="609.0" style="stroke:rgb(0.0,0.0,0.0);stroke-width:0.175;fill:rgb(0.0,0.0,0.0);opacity:1.0;" transform="rotate(-0.0,713.37,609.0)">8.0</text>
<line x1="816.65" y1="585.0" x2="816.65" y2="591.0" style="stroke:rgb(0.0,0.0,0.0);stroke-width:2.0;opacity:1.0;stroke-linecap:butt" />
<text font-size="12.0" font-family="Roboto" x="798.27" y="609.0" style="stroke:rgb(0.0,0.0,0.0);stroke-width:0.175;fill:rgb(0.0,0.0,0.0);opacity:1.0;" transform="rotate(-0.0,798.27,609.0)">9.0</text>
<line x1="901.55005" y1="585.0" x2="901.55005" y2="591.0" style="stroke:rgb(0.0,0.0,0.0);stroke-width:2.0;opacity:1.0;stroke-linecap:butt" />
<text font-size="12.0" font-family="Roboto" x="881.49005" y="609.0" style="stroke:rgb(0.0,0.0,0.0);stroke-width:0.175;fill:rgb(0.0,0.0,0.0);opacity:1.0;" transform="rotate(-0.0,881.49005,609.0)">10.0</text>
<line x1="87.0" y1="559.8971" x2="93.0" y2="559.8971" style="stroke:rgb(0.0,0.0,0.0);stroke-width:2.0;opacity:1.0;stroke-linecap:butt" />
<text font-size="12.0" font-family="Roboto" x="46.24" y="565.8971" style="stroke:rgb(0.0,0.0,0.0);stroke-width:0.175;fill:rgb(0.0,0.0,0.0);opacity:1.0;" transform="rotate(-0.0,46.24,565.8971)">0.0</text>
<line x1="87.0" y1="417.46732" x2="93.0" y2="417.46732" style="stroke:rgb(0.0,0.0,0.0);stroke-width:2.0;opacity:1.0;stroke-linecap:butt" />
<text font-size="12.0" font-family="Roboto" x="43.0" y="423.46732" style="stroke:rgb(0.0,0.0,0.0);stroke-width:0.175;fill:rgb(0.0,0.0,0.0);opacity:1.0;" transform="rotate(-0.0,43.0,423.46732)">100.0</text>
<line x1="87.0" y1="275.03754" x2="93.0" y2="275.03754" style="stroke:rgb(0.0,0.0,0.0);stroke-width:2.0;opacity:1.0;stroke-linecap:butt" />
<text font-size="12.0" font-family="Roboto" x="43.0" y="281.03754" style="stroke:rgb(0.0,0.0,0.0);stroke-width:0.175;fill:rgb(0.0,0.0,0.0);opacity:1.0;" transform="rotate(-0.0,43.0,281.03754)">200.0</text>
<line x1="87.0" y1="132.60779" x2="93.0" y2="132.60779" style="stroke:rgb(0.0,0.0,0.0);stroke-width:2.0;opacity:1.0;stroke-linecap:butt" />
<text font-size="12.0" font-family="Roboto" x="43.0" y="138.60779" style="stroke:rgb(0.0,0.0,0.0);stroke-width:0.175;fill:rgb(0.0,0.0,0.0);opacity:1.0;" transform="rotate(-0.0,43.0,138.60779)">300.0</text>
<polyline points="137.45,552.2914 222.35,550.83856 307.25,545.9817 392.15,539.202 477.05,531.3969 561.94995,520.8001 646.85,506.27228 731.75,500.48962 816.64996,483.79688 901.55,473.4707" style="stroke:rgb(0.0,0.0,255.0);stroke-width:3.0;opacity:1.0;stroke-linecap:butt;fill:none;" />
<polyline points="137.45,556.55 222.35,549.24335 307.25,534.37366 392.15,510.27457 477.05,474.63864 561.94995,424.00485 646.85,361.73456 731.75,280.69202 816.64996,190.9755 901.55,80.44995" style="stroke:rgb(255.0,0.0,0.0);stroke-width:3.0;opacity:1.0;stroke-linecap:butt;fill:none;" />
<polyline points="137.45,555.2254 222.35,552.5477 307.25,548.9727 392.15,543.6459 477.05,538.6608 561.94995,531.63904 646.85,523.0078 731.75,516.22815 816.64996,506.30078 901.55,493.73846" style="stroke:rgb(0.0,127.5,0.0);stroke-width:3.0;opacity:1.0;stroke-linecap:butt;fill:none;" />
<text font-size="20.0" font-family="Roboto" x="461.6" y="36.0" style="stroke:rgb(0.0,0.0,0.0);stroke-width:0.3;fill:rgb(0.0,0.0,0.0);opacity:1.0;" transform="rotate(-0.0,461.6,36.0)"></text>
<text font-size="15.0" font-family="Roboto" x="489.675" y="646.0" style="stroke:rgb(0.0,0.0,0.0);stroke-width:0.3;fill:rgb(0.0,0.0,0.0);opacity:1.0;" transform="rotate(-0.0,489.675,646.0)">Длина строк</text>
<text font-size="15.0" font-family="Roboto" x="31.0" y="348.7" style="stroke:rgb(0.0,0.0,0.0);stroke-width:0.3;fill:rgb(0.0,0.0,0.0);opacity:1.0;" transform="rotate(-90.0,31.0,348.7)">Время, мкс</text>
<rect x="115.0" y="74.0" width="270.3" height="70.0" style="fill:rgb(255.0,255.0,255.0);stroke-width:2.0;stroke:rgb(0.0,0.0,0.0);opacity:0.7" />
<rect x="125.0" y="84.0" width="10.0" height="10.0" style="fill:rgb(0.0,0.0,255.0);stroke-width:0;stroke:rgb(0,0,0);opacity:1.0" />
<text font-size="10.0" font-family="Roboto" x="145.0" y="94.0" style="stroke:rgb(0.0,0.0,0.0);stroke-width:0.3;fill:rgb(0.0,0.0,0.0);opacity:1.0;" transform="rotate(-0.0,145.0,94.0)">Дамерау-Левенштейн не рекурсивный</text>
<rect x="125.0" y="104.0" width="10.0" height="10.0" style="fill:rgb(255.0,0.0,0.0);stroke-width:0;stroke:rgb(0,0,0);opacity:1.0" />
<text font-size="10.0" font-family="Roboto" x="145.0" y="114.0" style="stroke:rgb(0.0,0.0,0.0);stroke-width:0.3;fill:rgb(0.0,0.0,0.0);opacity:1.0;" transform="rotate(-0.0,145.0,114.0)">Дамерау-Левенштейн рекурсивный с кешем</text>
<rect x="125.0" y="124.0" width="10.0" height="10.0" style="fill:rgb(0.0,127.5,0.0);stroke-width:0;stroke:rgb(0,0,0);opacity:1.0" />
<text font-size="10.0" font-family="Roboto" x="145.0" y="134.0" style="stroke:rgb(0.0,0.0,0.0);stroke-width:0.3;fill:rgb(0.0,0.0,0.0);opacity:1.0;" transform="rotate(-0.0,145.0,134.0)">Левенштейн не рекурсивный</text>
</svg>